<svg xmlns="http://www.w3.org/2000/svg" viewBox="0 0 400 300" width="400" height="300" preserveAspectRatio="xMidYMid meet" style="width: 100%; height: 100%;"><defs><clipPath id="animationMask_eWbX5zAjRB"><rect width="400" height="300" x="0" y="0"></rect></clipPath></defs><g clip-path="url(#animationMask_eWbX5zAjRB)"><g transform="matrix(0.1901,0,0,0.0331,201.7553,196.8795)" opacity="0.58" style="user-select: none;"><g opacity="1" transform="matrix(1.2361,0.0097,-0.0014,0.1826,-40.63,-74.128)"><path fill="rgb(42,42,42)" fill-opacity="1" d=" M326,-276.5 C326,-276.5 326,276.5 326,276.5 C326,409.5079040527344 218.00790405273438,517.5 85,517.5 C85,517.5 -85,517.5 -85,517.5 C-218.00790405273438,517.5 -326,409.5079040527344 -326,276.5 C-326,276.5 -326,-276.5 -326,-276.5 C-326,-409.5079040527344 -218.00790405273438,-517.5 -85,-517.5 C-85,-517.5 85,-517.5 85,-517.5 C218.00790405273438,-517.5 326,-409.5079040527344 326,-276.5z"></path></g><g opacity="1" transform="matrix(0.9723,-0.0036,0.0075,2,-43.893,-271.643)"><path fill="rgb(241,241,241)" fill-opacity="1" d="M0 0"></path><path fill="rgb(241,241,241)" fill-opacity="1" d="M0 0"></path></g></g><g transform="matrix(0.1904,0,0,0.1904,202.2672,147.6208)" opacity="1" style="user-select: none;"><g opacity="1" transform="matrix(1,0,0,1,-323.5,-233.25)"><path fill="rgb(241,98,98)" fill-opacity="1" d=" M33.5,-0.5 C33.5,-0.5 33.5,0.5 33.5,0.5 C33.5,11.538000106811523 24.538000106811523,20.5 13.5,20.5 C13.5,20.5 -13.5,20.5 -13.5,20.5 C-24.538000106811523,20.5 -33.5,11.538000106811523 -33.5,0.5 C-33.5,0.5 -33.5,-0.5 -33.5,-0.5 C-33.5,-11.538000106811523 -24.538000106811523,-20.5 -13.5,-20.5 C-13.5,-20.5 13.5,-20.5 13.5,-20.5 C24.538000106811523,-20.5 33.5,-11.538000106811523 33.5,-0.5z"></path></g><g opacity="1" transform="matrix(0.9899,0,0,-0.6335,-39.857,-168.286)"><path fill="rgb(226,226,226)" fill-opacity="1" d=" M1.3903353803261433e-14,-227.0590057373047 C1.3903353803261433e-14,-227.0590057373047 215.94593811035156,-70.16509246826172 215.94593811035156,-70.16509246826172 C215.94593811035156,-70.16509246826172 133.46192932128906,183.69459533691406 133.46192932128906,183.69459533691406 C133.46192932128906,183.69459533691406 -133.46192932128906,183.69459533691406 -133.46192932128906,183.69459533691406 C-133.46192932128906,183.69459533691406 -215.94593811035156,-70.16509246826172 -215.94593811035156,-70.16509246826172 C-215.94593811035156,-70.16509246826172 1.3903353803261433e-14,-227.0590057373047 1.3903353803261433e-14,-227.0590057373047z"></path><path stroke-linecap="butt" stroke-linejoin="miter" fill-opacity="0" stroke-miterlimit="4" stroke="rgb(42,42,42)" stroke-opacity="1" stroke-width="28" d=" M1.3903353803261433e-14,-227.0590057373047 C1.3903353803261433e-14,-227.0590057373047 215.94593811035156,-70.16509246826172 215.94593811035156,-70.16509246826172 C215.94593811035156,-70.16509246826172 133.46192932128906,183.69459533691406 133.46192932128906,183.69459533691406 C133.46192932128906,183.69459533691406 -133.46192932128906,183.69459533691406 -133.46192932128906,183.69459533691406 C-133.46192932128906,183.69459533691406 -215.94593811035156,-70.16509246826172 -215.94593811035156,-70.16509246826172 C-215.94593811035156,-70.16509246826172 1.3903353803261433e-14,-227.0590057373047 1.3903353803261433e-14,-227.0590057373047z"></path></g><g opacity="1" transform="matrix(1.1085,0,0,0.733,-38,6)"><path fill="rgb(42,42,42)" fill-opacity="1" d=" M326,-306 C326,-306 326,306 326,306 C326,317.0379943847656 317.0379943847656,326 306,326 C306,326 -306,326 -306,326 C-317.0379943847656,326 -326,317.0379943847656 -326,306 C-326,306 -326,-306 -326,-306 C-326,-317.0379943847656 -317.0379943847656,-326 -306,-326 C-306,-326 306,-326 306,-326 C317.0379943847656,-326 326,-317.0379943847656 326,-306z"></path></g><g opacity="1" transform="matrix(0.9723,-0.0036,0.0075,2,-43.893,-271.643)"><path fill="rgb(241,241,241)" fill-opacity="1" d="M0 0"></path><path fill="rgb(241,241,241)" fill-opacity="1" d="M0 0"></path></g></g><g transform="matrix(0.1904,0,0,0.1904,202.2672,145.336)" opacity="1" style="user-select: none;"><g opacity="1" transform="matrix(1,0,0,1,-44,20)"><path stroke-linecap="butt" stroke-linejoin="miter" fill-opacity="0" stroke-miterlimit="4" stroke="rgb(64,74,112)" stroke-opacity="1" stroke-width="30" d=" M0,-180 C99.34200286865234,-180 180,-99.34200286865234 180,0 C180,99.34200286865234 99.34200286865234,180 0,180 C-99.34200286865234,180 -180,99.34200286865234 -180,0 C-180,-99.34200286865234 -99.34200286865234,-180 0,-180z"></path></g><g opacity="1" transform="matrix(0.8382,0,0,0.8382,-44,20)"><path stroke-linecap="butt" stroke-linejoin="miter" fill-opacity="0" stroke-miterlimit="4" stroke="rgb(255,215,0)" stroke-opacity="1" stroke-width="10" d=" M0,-180 C99.34200286865234,-180 180,-99.34200286865234 180,0 C180,99.34200286865234 99.34200286865234,180 0,180 C-99.34200286865234,180 -180,99.34200286865234 -180,0 C-180,-99.34200286865234 -99.34200286865234,-180 0,-180z"></path></g><g opacity="1" transform="matrix(0.4892,0,0,0.4892,-44,20)"><path stroke-linecap="butt" stroke-linejoin="miter" fill-opacity="0" stroke-miterlimit="4" stroke="rgb(71,210,154)" stroke-opacity="1" stroke-width="10" d=" M0,-180 C99.34200286865234,-180 180,-99.34200286865234 180,0 C180,99.34200286865234 99.34200286865234,180 0,180 C-99.34200286865234,180 -180,99.34200286865234 -180,0 C-180,-99.34200286865234 -99.34200286865234,-180 0,-180z"></path></g><g opacity="1" transform="matrix(0.3474,0,0,0.3474,-44,20)"><path fill="rgb(71,210,154)" fill-opacity="1" d=" M0,-180 C99.34200286865234,-180 180,-99.34200286865234 180,0 C180,99.34200286865234 99.34200286865234,180 0,180 C-99.34200286865234,180 -180,99.34200286865234 -180,0 C-180,-99.34200286865234 -99.34200286865234,-180 0,-180z"></path><path stroke-linecap="butt" stroke-linejoin="miter" fill-opacity="0" stroke-miterlimit="4" stroke="rgb(64,74,112)" stroke-opacity="1" stroke-width="73" d=" M0,-180 C99.34200286865234,-180 180,-99.34200286865234 180,0 C180,99.34200286865234 99.34200286865234,180 0,180 C-99.34200286865234,180 -180,99.34200286865234 -180,0 C-180,-99.34200286865234 -99.34200286865234,-180 0,-180z"></path></g><g opacity="1" transform="matrix(0.9317,-0.3633,0.3703,0.9495,-5.6636,-9.6139)"><path fill="rgb(255,255,255)" fill-opacity="1" d=" M-25,-7 C-16.533000946044922,22.198999404907227 -24.117000579833984,42.5629997253418 -17.509000778198242,36.56800079345703 C-10.901000022888184,30.572999954223633 -4.9120001792907715,6.960999965667725 -7.703999996185303,-2.86299991607666 C-11.25100040435791,-15.34000015258789 -27.642000198364258,-16.111000061035156 -25,-7z"></path></g></g><g transform="matrix(0.971,0,0,0.971,-28.7587,257.9658)" opacity="0" style="user-select: none; display: block;"><g opacity="1" transform="matrix(0.4142,0,0,0.4142,228,-164)"><path fill="rgb(240,240,240)" fill-opacity="1" d=" M2.0785807360794266e-14,-339.4580078125 C2.0785807360794266e-14,-339.4580078125 339.4580078125,0 339.4580078125,0 C339.4580078125,0 2.0785807360794266e-14,339.4580078125 2.0785807360794266e-14,339.4580078125 C2.0785807360794266e-14,339.4580078125 -339.4580078125,4.157161472158853e-14 -339.4580078125,4.157161472158853e-14 C-339.4580078125,4.157161472158853e-14 2.0785807360794266e-14,-339.4580078125 2.0785807360794266e-14,-339.4580078125z" style="display: block;"></path></g></g><g transform="matrix(0.1904,0,0,0.1904,201.3086,152.2448)" opacity="0" style="user-select: none; display: block;"><g opacity="1" transform="matrix(1,0,0,1,-322,-317.927)"><path fill="rgb(55,55,55)" fill-opacity="1" d=" M5,-14.5 C5,-14.5 5,14.5 5,14.5 C5,17.25950050354004 2.759500026702881,19.5 0,19.5 C0,19.5 0,19.5 0,19.5 C-2.759500026702881,19.5 -5,17.25950050354004 -5,14.5 C-5,14.5 -5,-14.5 -5,-14.5 C-5,-17.25950050354004 -2.759500026702881,-19.5 0,-19.5 C0,-19.5 0,-19.5 0,-19.5 C2.759500026702881,-19.5 5,-17.25950050354004 5,-14.5z" style="display: block;"></path></g><g opacity="1" transform="matrix(0.766,-0.6428,0.6428,0.766,-356.239,-302.715)"><path stroke-linecap="butt" stroke-linejoin="miter" fill-opacity="0" stroke-miterlimit="4" stroke="rgb(255,255,255)" stroke-opacity="1" stroke-width="0" d=" M5,-14.5 C5,-14.5 5,14.5 5,14.5 C5,17.25950050354004 2.759500026702881,19.5 0,19.5 C0,19.5 0,19.5 0,19.5 C-2.759500026702881,19.5 -5,17.25950050354004 -5,14.5 C-5,14.5 -5,-14.5 -5,-14.5 C-5,-17.25950050354004 -2.759500026702881,-19.5 0,-19.5 C0,-19.5 0,-19.5 0,-19.5 C2.759500026702881,-19.5 5,-17.25950050354004 5,-14.5z" style="display: block;"></path><path fill="rgb(55,55,55)" fill-opacity="1" d=" M5,-14.5 C5,-14.5 5,14.5 5,14.5 C5,17.25950050354004 2.759500026702881,19.5 0,19.5 C0,19.5 0,19.5 0,19.5 C-2.759500026702881,19.5 -5,17.25950050354004 -5,14.5 C-5,14.5 -5,-14.5 -5,-14.5 C-5,-17.25950050354004 -2.759500026702881,-19.5 0,-19.5 C0,-19.5 0,-19.5 0,-19.5 C2.759500026702881,-19.5 5,-17.25950050354004 5,-14.5z" style="display: block;"></path><path stroke-linecap="butt" stroke-linejoin="miter" fill-opacity="0" stroke-miterlimit="4" stroke="rgb(255,255,255)" stroke-opacity="0" stroke-width="0" d=" M5,-14.5 C5,-14.5 5,14.5 5,14.5 C5,17.25950050354004 2.759500026702881,19.5 0,19.5 C0,19.5 0,19.5 0,19.5 C-2.759500026702881,19.5 -5,17.25950050354004 -5,14.5 C-5,14.5 -5,-14.5 -5,-14.5 C-5,-17.25950050354004 -2.759500026702881,-19.5 0,-19.5 C0,-19.5 0,-19.5 0,-19.5 C2.759500026702881,-19.5 5,-17.25950050354004 5,-14.5z" style="display: block;"></path></g><g opacity="1" transform="matrix(0.766,0.6428,-0.6428,0.766,-284.634,-303.743)"><path stroke-linecap="butt" stroke-linejoin="miter" fill-opacity="0" stroke-miterlimit="4" stroke="rgb(255,255,255)" stroke-opacity="1" stroke-width="0" d=" M5,-14.5 C5,-14.5 5,14.5 5,14.5 C5,17.25950050354004 2.759500026702881,19.5 0,19.5 C0,19.5 0,19.5 0,19.5 C-2.759500026702881,19.5 -5,17.25950050354004 -5,14.5 C-5,14.5 -5,-14.5 -5,-14.5 C-5,-17.25950050354004 -2.759500026702881,-19.5 0,-19.5 C0,-19.5 0,-19.5 0,-19.5 C2.759500026702881,-19.5 5,-17.25950050354004 5,-14.5z" style="display: block;"></path><path fill="rgb(55,55,55)" fill-opacity="1" d=" M5,-14.5 C5,-14.5 5,14.5 5,14.5 C5,17.25950050354004 2.759500026702881,19.5 0,19.5 C0,19.5 0,19.5 0,19.5 C-2.759500026702881,19.5 -5,17.25950050354004 -5,14.5 C-5,14.5 -5,-14.5 -5,-14.5 C-5,-17.25950050354004 -2.759500026702881,-19.5 0,-19.5 C0,-19.5 0,-19.5 0,-19.5 C2.759500026702881,-19.5 5,-17.25950050354004 5,-14.5z" style="display: block;"></path><path stroke-linecap="butt" stroke-linejoin="miter" fill-opacity="0" stroke-miterlimit="4" stroke="rgb(255,255,255)" stroke-opacity="1" stroke-width="0" d=" M5,-14.5 C5,-14.5 5,14.5 5,14.5 C5,17.25950050354004 2.759500026702881,19.5 0,19.5 C0,19.5 0,19.5 0,19.5 C-2.759500026702881,19.5 -5,17.25950050354004 -5,14.5 C-5,14.5 -5,-14.5 -5,-14.5 C-5,-17.25950050354004 -2.759500026702881,-19.5 0,-19.5 C0,-19.5 0,-19.5 0,-19.5 C2.759500026702881,-19.5 5,-17.25950050354004 5,-14.5z" style="display: block;"></path></g></g><g></g></g></svg>